<?xml version="1.0" encoding="UTF-8" standalone="no"?>
<!-- Created with Inkscape (http://www.inkscape.org/) -->

<svg
   version="1.1"
   id="svg1"
   width="5333.3335"
   height="5333.3335"
   viewBox="0 0 5333.3335 5333.3335"
   xmlns="http://www.w3.org/2000/svg"
   xmlns:svg="http://www.w3.org/2000/svg">
  <defs
     id="defs1">
    <rect
       x="1473.3334"
       y="2820.0001"
       width="2564.8454"
       height="773.33336"
       id="rect75" />
  </defs>
  <g
     id="g1">
    <path
       id="path1"
       d="M -1.60156,39998.4 H 39998.4 V -1.60156 H -1.60156 Z"
       style="fill:none;stroke:#000000;stroke-width:4.7991;stroke-linecap:butt;stroke-linejoin:miter;stroke-miterlimit:22.9256;stroke-dasharray:none;stroke-opacity:1"
       transform="matrix(0.13333333,0,0,-0.13333333,0,5333.3333)" />
    <path
       id="path3"
       d="M 15111.6,30923 C 9078.84,28224 6375.46,21144.2 9075.2,15110.9 11773.9,9078.51 18853.6,6376.85 24886.3,9075.16 30919,11774.5 33622.4,18853.6 30923.7,24886 c -2700,6033.3 -9779.4,8736.3 -15812.1,6037 z m 16778,-5604.4 c 2938.3,-6567 -4,-14272.3 -6570.9,-17210.06 -6566.4,-2938.24 -14272.7,3.35 -17210.5,6570.06 -2938.52,6567.7 4.31,14273.6 6570.7,17211.1 6567.4,2937.8 14273,-3.7 17210.7,-6571.1"
       style="fill:#080808;fill-opacity:1;fill-rule:nonzero;stroke:none"
       transform="matrix(0.13333333,0,0,-0.13333333,0,5333.3333)" />
    <path
       id="path4"
       d="M 14559.7,32156.8 C 7845.39,29153.2 4837.36,21274 7841.66,14559 10845.4,7844.68 18723.9,4837.7 25437.9,7841.71 c 6714.3,3003.59 9723,10881.89 6718.6,17595.79 -3003.4,6714.9 -10882.6,9722.7 -17596.8,6719.3 z M 35220.3,26808.5 C 38981.6,18402.7 35214.9,8538.43 26809.2,4777.86 18403,1017.29 8538.85,4782.26 4777.9,13188.1 c -3760.95,8406 5.36,18270.9 8411.2,22031.9 8406,3760.6 18271,-5.5 22031.2,-8411.5"
       style="fill:#080808;fill-opacity:1;fill-rule:nonzero;stroke:none"
       transform="matrix(0.13333333,0,0,-0.13333333,0,5333.3333)" />
    <path
       id="path39"
       d="m 14391.5,35212.9 -1998.9,-894.4 -224.3,1049.7 c -10.1,45.3 13.6,91.5 56.2,110.9 l 1412.7,632.5 c 42.9,19 93.3,5.5 120.7,-32 l 633.6,-866.7"
       style="fill:#080808;fill-opacity:1;fill-rule:nonzero;stroke:none"
       transform="matrix(0.13333333,0,0,-0.13333333,0,5333.3333)" />
    <path
       id="path40"
       d="m 11834.7,34007.8 -1813.8,-1227.8 -402.65,995.3 c -17.52,43.3 -2.29,93 36.2,119 l 1281.45,868.1 c 38.8,25.9 90.5,21.5 123.9,-10.9 l 774.9,-743.7"
       style="fill:#080808;fill-opacity:1;fill-rule:nonzero;stroke:none"
       transform="matrix(0.13333333,0,0,-0.13333333,0,5333.3333)" />
    <path
       id="path41"
       d="m 9526.05,32377 -1572.57,-1523.5 -568.42,910.2 c -24.99,39.5 -18.57,90.9 14.84,123.6 l 1111.19,1075.8 c 33.12,32.4 85.11,37.1 123.6,11.2 l 891.36,-597.3"
       style="fill:#080808;fill-opacity:1;fill-rule:nonzero;stroke:none"
       transform="matrix(0.13333333,0,0,-0.13333333,0,5333.3333)" />
    <path
       id="path42"
       d="m 7536.05,30371.1 -1283.91,-1773.5 -719.02,797.1 c -31.12,34.8 -33.8,86.4 -6.42,124.2 l 907.54,1253.1 c 27.39,37.9 77.37,51.4 120.26,32.5 l 981.55,-433.4"
       style="fill:#080808;fill-opacity:1;fill-rule:nonzero;stroke:none"
       transform="matrix(0.13333333,0,0,-0.13333333,0,5333.3333)" />
    <path
       id="path43"
       d="m 5923.84,28049.4 -956.18,-1968.8 -846.07,660 c -36.48,28.7 -48.26,79 -28.05,120.9 l 675.94,1391.9 c 20.58,41.8 67.49,64.2 112.78,52.7 l 1041.58,-256.7"
       style="fill:#080808;fill-opacity:1;fill-rule:nonzero;stroke:none"
       transform="matrix(0.13333333,0,0,-0.13333333,0,5333.3333)" />
    <path
       id="path44"
       d="m 4740.37,25482.4 -599.83,-2105.9 -947.75,502.9 c -41.55,21.9 -61.47,69.6 -49.02,114.5 l 423.57,1488.8 c 12.54,45 55.05,74.7 101.67,71.6 l 1071.36,-71.9"
       style="fill:#080808;fill-opacity:1;fill-rule:nonzero;stroke:none"
       transform="matrix(0.13333333,0,0,-0.13333333,0,5333.3333)" />
    <path
       id="path45"
       d="m 4019.91,22749 -224.23,-2178.9 -1022.43,331 c -44.52,14.5 -72.96,58.1 -67.88,104.3 l 159.79,1540.9 c 4.69,46 41.55,83.1 87.8,87.8 l 1066.95,114.9"
       style="fill:#080808;fill-opacity:1;fill-rule:nonzero;stroke:none"
       transform="matrix(0.13333333,0,0,-0.13333333,0,5333.3333)" />
    <path
       id="path46"
       d="m 3784.19,19932.3 156.73,-2183.8 -1063.6,148.6 c -46.24,6.7 -81.38,44.6 -84.83,91.2 l -110.77,1543.5 c -3.35,46.6 26.33,89.2 71.33,102.3 l 1031.14,298.2"
       style="fill:#080808;fill-opacity:1;fill-rule:nonzero;stroke:none"
       transform="matrix(0.13333333,0,0,-0.13333333,0,5333.3333)" />
    <path
       id="path47"
       d="m 4042.21,17117.9 533.68,-2123.6 -1073.37,-37.4 c -46.25,-1.7 -87.8,29.4 -99,74.6 l -376.56,1500.4 c -11.2,45.2 10.83,92.4 52.67,112.7 l 962.58,473.3"
       style="fill:#080808;fill-opacity:1;fill-rule:nonzero;stroke:none"
       transform="matrix(0.13333333,0,0,-0.13333333,0,5333.3333)" />
    <path
       id="path48"
       d="m 4784.61,14391.2 894.42,-1998.6 -1049.43,-223.5 c -45.29,-9.9 -91.53,13.5 -110.78,56 l -632.66,1412.5 c -18.86,42.6 -5.37,92.6 32.16,119.9 l 866.29,633.7"
       style="fill:#080808;fill-opacity:1;fill-rule:nonzero;stroke:none"
       transform="matrix(0.13333333,0,0,-0.13333333,0,5333.3333)" />
    <path
       id="path49"
       d="M 5989.71,11835.3 7217.8,10021.9 6222.46,9618.59 c -43.27,-17.23 -92.87,-2.3 -118.91,36.48 l -868,1282.23 c -26.04,38.4 -21.64,90.1 10.82,123.8 l 743.34,774.2"
       style="fill:#080808;fill-opacity:1;fill-rule:nonzero;stroke:none"
       transform="matrix(0.13333333,0,0,-0.13333333,0,5333.3333)" />
    <path
       id="path50"
       d="M 7620.78,9526.39 9145.09,7953.82 8235.16,7384.35 c -39.54,-24.71 -90.86,-18.58 -123.61,14.84 L 7033.78,8510.76 c -32.74,33.41 -37.53,85.11 -11.49,123.98 l 598.49,891.65"
       style="fill:#080808;fill-opacity:1;fill-rule:nonzero;stroke:none"
       transform="matrix(0.13333333,0,0,-0.13333333,0,5333.3333)" />
    <path
       id="path51"
       d="m 9627.06,7535.33 1773.54,-1283.52 -796.4,-718.35 c -34.7,-31.41 -86.4,-34.47 -124.3,-7.09 l -1253.71,907.54 c -37.92,27.38 -51.42,76.98 -32.46,119.88 l 433.33,981.54"
       style="fill:#080808;fill-opacity:1;fill-rule:nonzero;stroke:none"
       transform="matrix(0.13333333,0,0,-0.13333333,0,5333.3333)" />
    <path
       id="path52"
       d="m 11948.4,5923.89 1970.5,-956.18 -660.6,-846.45 c -28.7,-36.48 -79,-48.64 -120.9,-28.06 l -1392.6,675.56 c -41.9,20.3 -64.2,67.21 -52.7,112.79 l 256.3,1042.34"
       style="fill:#080808;fill-opacity:1;fill-rule:nonzero;stroke:none"
       transform="matrix(0.13333333,0,0,-0.13333333,0,5333.3333)" />
    <path
       id="path53"
       d="m 14515.5,4740.04 2106.2,-599.16 -503.3,-948.8 c -21.9,-41.17 -69.5,-61.47 -114.5,-48.93 l -1489.2,424.24 c -44.9,12.45 -74.6,55.05 -71.5,101.58 l 72.3,1071.07"
       style="fill:#080808;fill-opacity:1;fill-rule:nonzero;stroke:none"
       transform="matrix(0.13333333,0,0,-0.13333333,0,5333.3333)" />
    <path
       id="path54"
       d="m 17248.5,4018.62 2177.6,-224.61 -330.7,-1020.71 c -14.5,-44.62 -58.1,-72.96 -104.4,-67.88 l -1539.8,158.36 c -45.9,5.07 -83.1,41.55 -87.8,87.79 l -114.9,1067.05"
       style="fill:#080808;fill-opacity:1;fill-rule:nonzero;stroke:none"
       transform="matrix(0.13333333,0,0,-0.13333333,0,5333.3333)" />
    <path
       id="path55"
       d="m 20064.8,3783.86 2184,156.73 -148.3,-1062.93 c -6.8,-45.96 -44.6,-81.38 -91.3,-84.83 l -1543.5,-110.77 c -46.6,-3.35 -89.2,26.33 -102.4,71.33 l -298.5,1030.47"
       style="fill:#080808;fill-opacity:1;fill-rule:nonzero;stroke:none"
       transform="matrix(0.13333333,0,0,-0.13333333,0,5333.3333)" />
    <path
       id="path56"
       d="m 22879.3,4041.89 2123.5,533.66 38.2,-1072.69 c 1.6,-46.63 -29.4,-88.18 -74.7,-99.29 l -1500.9,-377.61 c -45.3,-11.2 -92.3,10.44 -112.9,52.28 l -473.2,963.65"
       style="fill:#080808;fill-opacity:1;fill-rule:nonzero;stroke:none"
       transform="matrix(0.13333333,0,0,-0.13333333,0,5333.3333)" />
    <path
       id="path57"
       d="m 25605.7,4784.94 1999.2,894.43 223.9,-1050.1 c 9.8,-45.58 -13.5,-91.92 -56.1,-110.78 L 26360,3885.82 c -42.9,-19.24 -92.9,-5.74 -120.3,31.79 l -634,867.33"
       style="fill:#080808;fill-opacity:1;fill-rule:nonzero;stroke:none"
       transform="matrix(0.13333333,0,0,-0.13333333,0,5333.3333)" />
    <path
       id="path58"
       d="m 28162.9,5989.38 1812.8,1228.76 403.2,-995.34 c 17.5,-43.28 2.3,-93.25 -36.5,-119.2 l -1281.7,-867.71 c -38.5,-26.04 -90.2,-21.93 -124,10.43 l -773.8,743.06"
       style="fill:#080808;fill-opacity:1;fill-rule:nonzero;stroke:none"
       transform="matrix(0.13333333,0,0,-0.13333333,0,5333.3333)" />
    <path
       id="path59"
       d="m 30471.8,7620.07 1571.9,1524.31 569.8,-910.22 c 24.7,-39.54 18.5,-91.25 -14.9,-123.99 L 31487.1,7033.74 c -33.5,-32.75 -85.2,-37.15 -123.7,-11.11 l -891.6,597.44"
       style="fill:#080808;fill-opacity:1;fill-rule:nonzero;stroke:none"
       transform="matrix(0.13333333,0,0,-0.13333333,0,5333.3333)" />
    <path
       id="path60"
       d="m 32462.2,9627.4 1283.8,1774.2 718.7,-797.7 c 31.2,-34.5 34.2,-86.5 6.8,-124.3 l -907.9,-1253.84 c -27.4,-37.82 -77.4,-51.32 -119.9,-32.36 l -981.5,434"
       style="fill:#080808;fill-opacity:1;fill-rule:nonzero;stroke:none"
       transform="matrix(0.13333333,0,0,-0.13333333,0,5333.3333)" />
    <path
       id="path61"
       d="m 34073.6,11948.5 955.9,1969.4 846.8,-660 c 36.7,-28.7 48.6,-79.3 28,-121.2 l -676.2,-1391.9 c -20.3,-41.9 -67.2,-63.8 -112.5,-52.7 l -1042,256.4"
       style="fill:#080808;fill-opacity:1;fill-rule:nonzero;stroke:none"
       transform="matrix(0.13333333,0,0,-0.13333333,0,5333.3333)" />
    <path
       id="path62"
       d="m 35258.4,14514.8 599.6,2106.6 948.8,-503.3 c 41.1,-22 61.5,-69.5 48.9,-114.2 l -424.5,-1489.8 c -12.6,-44.6 -55.1,-74.3 -101.7,-71.2 l -1071.1,71.9"
       style="fill:#080808;fill-opacity:1;fill-rule:nonzero;stroke:none"
       transform="matrix(0.13333333,0,0,-0.13333333,0,5333.3333)" />
    <path
       id="path63"
       d="m 35978.2,17247.9 225,2178.5 1020.7,-330.9 c 44.5,-14.6 73,-57.9 68.2,-104.4 l -157.7,-1539.5 c -5.1,-46.7 -41.5,-83.4 -88.2,-88.5 l -1068,-115.2"
       style="fill:#080808;fill-opacity:1;fill-rule:nonzero;stroke:none"
       transform="matrix(0.13333333,0,0,-0.13333333,0,5333.3333)" />
    <path
       id="path64"
       d="m 36213.7,20064.8 -156.8,2183.5 1062.7,-148.8 c 46.2,-6.4 81.4,-44.3 84.7,-90.9 l 110.8,-1542.9 c 3.3,-46.6 -26.3,-89.1 -71.3,-102 l -1030.1,-298.9"
       style="fill:#080808;fill-opacity:1;fill-rule:nonzero;stroke:none"
       transform="matrix(0.13333333,0,0,-0.13333333,0,5333.3333)" />
    <path
       id="path65"
       d="m 35955.3,22878.6 -533.3,2124.9 1072.7,37.5 c 46.6,1.3 88.1,-29.4 99.2,-74.7 l 377.4,-1501.6 c 11.5,-44.9 -10.6,-92.2 -52.4,-112.8 l -963.6,-473.3"
       style="fill:#080808;fill-opacity:1;fill-rule:nonzero;stroke:none"
       transform="matrix(0.13333333,0,0,-0.13333333,0,5333.3333)" />
    <path
       id="path66"
       d="m 35213.2,25606.4 -894,1998.4 1050.1,223.7 c 45.6,9.8 91.8,-13.9 110.8,-56.4 l 631.6,-1412.2 c 19.2,-42.5 5.7,-92.9 -31.8,-120.2 l -866.7,-633.3"
       style="fill:#080808;fill-opacity:1;fill-rule:nonzero;stroke:none"
       transform="matrix(0.13333333,0,0,-0.13333333,0,5333.3333)" />
    <path
       id="path67"
       d="m 34008.4,28163.2 -1227.7,1812.4 995.1,403 c 43.1,17.5 93.1,2.3 119.2,-36.2 l 868,-1281.4 c 26,-38.5 22,-90.6 -10.5,-124 l -744.1,-773.8"
       style="fill:#080808;fill-opacity:1;fill-rule:nonzero;stroke:none"
       transform="matrix(0.13333333,0,0,-0.13333333,0,5333.3333)" />
    <path
       id="path68"
       d="m 32377.1,30471.8 -1523.7,1572 910,568.7 c 39.8,24.7 91.2,18.2 123.9,-14.9 l 1075.8,-1110.9 c 32.8,-33 37.2,-85.1 11.1,-123.6 l -597.1,-891.3"
       style="fill:#080808;fill-opacity:1;fill-rule:nonzero;stroke:none"
       transform="matrix(0.13333333,0,0,-0.13333333,0,5333.3333)" />
    <path
       id="path69"
       d="m 30371.5,32461.2 -1774.2,1284.1 797.4,719.1 c 34.5,31.4 86.5,34.1 124.3,6.8 l 1254.1,-907.5 c 37.8,-27.4 51.3,-77.8 32.4,-120.3 l -434,-982.2"
       style="fill:#080808;fill-opacity:1;fill-rule:nonzero;stroke:none"
       transform="matrix(0.13333333,0,0,-0.13333333,0,5333.3333)" />
    <path
       id="path70"
       d="m 28049,34074 -1970.1,955.9 660.7,846.7 c 28.7,36.8 79.3,48.6 121.2,28.3 l 1391.9,-675.8 c 41.9,-20.6 63.8,-67.6 52.7,-112.5 L 28049,34074"
       style="fill:#080808;fill-opacity:1;fill-rule:nonzero;stroke:none"
       transform="matrix(0.13333333,0,0,-0.13333333,0,5333.3333)" />
    <path
       id="path71"
       d="m 25482.8,35257.8 -2106,599.6 503.6,948 c 22,41.3 69.6,61.2 114.2,48.6 l 1488.5,-423.5 c 44.6,-12.5 74.3,-55.1 71.6,-101.7 l -71.9,-1071"
       style="fill:#080808;fill-opacity:1;fill-rule:nonzero;stroke:none"
       transform="matrix(0.13333333,0,0,-0.13333333,0,5333.3333)" />
    <path
       id="path72"
       d="m 22750.3,35977.9 -2178.8,225.3 331.2,1021.4 c 14.6,44.6 58.1,72.9 104.4,67.8 l 1539.9,-158.7 c 46.5,-4.7 83.4,-41.6 88.5,-87.8 l 114.8,-1068"
       style="fill:#080808;fill-opacity:1;fill-rule:nonzero;stroke:none"
       transform="matrix(0.13333333,0,0,-0.13333333,0,5333.3333)" />
    <path
       id="path73"
       d="m 19933.1,36212.9 -2184.7,-156.3 149,1062.9 c 6.4,46.3 44.2,81.4 90.8,84.8 l 1544,110.4 c 46.5,3.4 89.1,-26.3 102.3,-71.2 l 298.6,-1030.6"
       style="fill:#080808;fill-opacity:1;fill-rule:nonzero;stroke:none"
       transform="matrix(0.13333333,0,0,-0.13333333,0,5333.3333)" />
    <path
       id="path74"
       d="m 17118.9,35954.6 -2124.5,-533.6 -37.6,1073 c -1.6,46.6 29.4,88.1 74.3,99.6 l 1501.4,376.3 c 45,11.2 92.3,-10.5 112.9,-52.4 l 473.5,-962.9"
       style="fill:#080808;fill-opacity:1;fill-rule:nonzero;stroke:none"
       transform="matrix(0.13333333,0,0,-0.13333333,0,5333.3333)" />
    <text
       xml:space="preserve"
       id="text75"
       style="font-style:normal;font-variant:normal;font-weight:800;font-stretch:normal;font-size:682.667px;font-family:Cantarell;-inkscape-font-specification:'Cantarell, Ultra-Bold';font-variant-ligatures:normal;font-variant-caps:normal;font-variant-numeric:normal;font-variant-east-asian:normal;text-align:start;writing-mode:lr-tb;direction:ltr;white-space:pre;shape-inside:url(#rect75);display:inline;fill:#000000;fill-opacity:1"
       transform="matrix(1.2989831,0,0,1.5487885,-653.22295,-1777.348)"><tspan
         x="1473.334"
         y="3433.0435"
         id="tspan1">WVDR</tspan></text>
    <path
       id="path78"
       d="m 1081.4226,2280.392 c 126.8123,-57.6369 211.2366,-187.7931 301.7946,-280.1973 67.8205,-69.1981 99.1134,-177.6615 170.7237,-227.1845 8.4778,20.8098 42.9351,46.4122 50.7876,63.5646 65.9064,-35.6501 133.8834,-177.5774 175.9589,-243.1599 40.3956,-63.0602 26.8781,-126.5828 127.4373,-115.9045 24.925,2.6904 34.9653,60.8738 58.8352,67.6843 19.2994,5.5493 90.3626,1.1351 83.6821,-1.5554 161.3089,64.6155 152.5578,42.1661 257.7267,-103.7128 71.5324,-99.3408 137.7514,-221.005 246.6708,-291.9265 107.474,147.3504 150.6043,418.5513 396.6498,255.6458 67.4303,111.0278 109.8573,-13.9574 163.1841,-54.3998 80.5176,54.9462 222.0974,386.937 349.0659,204.0626 50.2795,34.1786 98.5667,30.0167 142.9079,-7.0627 110.3261,94.0015 153.9252,238.3251 274.0178,336.5728 111.6543,91.3952 241.9044,164.6292 306.8342,281.6266 -66.6096,-78.4888 -186.2336,-111.2381 -263.9384,-185.2285 5.1179,26.275 -4.1803,53.9795 1.5236,80.2125 -35.3949,-42.5867 -81.1818,-80.0864 -140.9544,-96.0617 -12.8533,47.2109 -23.206,91.3111 -38.4815,137.4292 -29.691,-33.8003 -61.1401,-85.0051 -94.8942,-124.3969 -11.4078,6.6425 -33.2073,16.0173 -44.0289,22.87 -19.7681,-39.7701 -55.2802,-63.8591 -92.6283,-87.1491 -16.4083,40.7788 -23.5969,82.2724 -21.7996,125.2794 -69.735,-55.2826 -71.8839,-157.7765 -156.0738,-198.1769 -40.2002,41.3675 -61.9215,94.338 -66.6488,147.5607 -28.9488,-42.1241 -65.5548,-96.5242 -110.7557,-137.7233 -53.5612,29.386 -64.1873,92.4462 -88.2529,137.513 -7.4227,-9.5009 -9.1418,-23.5003 -15.4707,-33.4638 -28.6751,38.2983 -58.2882,119.1837 -67.0394,138.3959 -40.0047,-83.7019 -100.637,-180.8565 -115.5217,-268.552 -20.1587,38.1303 -32.6603,99.0883 -46.8807,148.1913 -48.2092,-42.6286 -90.8314,-93.119 -140.9547,-132.8888 -13.5172,28.419 -61.6871,61.0003 -74.6965,84.5425 -26.6831,-43.8057 -45.4743,-91.2688 -79.4628,-124.9852 -49.2248,60.79 -88.4874,126.4148 -160.3713,173.037 5.1961,-29.1757 -10.2356,-67.264 -5.6257,-96.5659 -51.9594,31.5301 -77.4704,91.5634 -121.0695,124.943 4.0631,-35.1453 -10.9777,-77.3117 -5.938,-112.289 -49.4202,38.2145 -86.1043,99.8453 -136.5793,138.4381 -4.4537,-54.2317 -1.7188,-110.103 -5.5864,-164.1666 -88.839,44.8569 -132.0085,120.2768 -200.8839,176.19 -4.6881,-53.6853 -2.0317,-109.6827 -5.6257,-163.4519 -57.5853,25.098 -82.8227,78.4049 -121.0694,121.7903 -10.6264,-16.3957 -41.2943,-33.5903 -51.2564,-47.6735 -22.8934,26.8636 -74.7355,65.2881 -92.1986,89.1248 -8.2434,-8.492 -10.6264,-18.1613 -18.5179,-25.8124 -65.2034,44.3521 -115.0531,111.0278 -156.1127,166.1423 4.6098,-39.5176 3.3206,-81.684 13.4782,-121.8322 -96.1837,112.2471 -187.7573,157.272 -318.4373,237.4845"
       style="fill:#000000;fill-opacity:1;fill-rule:nonzero;stroke:none;stroke-width:0.405263" />
    <path
       id="path79"
       d="m 862.33322,2612.4667 c 230.30148,-70.039 461.11108,-273.0084 670.66778,-391.3093 55.3582,-31.2359 250.2648,-185.1026 314.4914,-170.2623 78.1735,18.0352 75.0873,165.722 178.6544,203.0956 57.8587,-27.7884 115.1314,-66.0871 174.67,-98.0794 9.5323,5.339 19.7678,15.3444 30.6286,21.6505 147.3616,-41.7878 276.1274,-148.7378 421.653,-200.5732 59.0697,199.3961 250.8118,325.18 433.3339,140.0777 117.0064,78.6568 123.3745,-55.0726 206.119,-77.6482 114.5061,-31.2359 134.5476,39.8121 218.3469,92.2781 219.2845,137.0505 219.4797,-77.5639 430.0913,-90.3443 84.1119,169.5898 290.1916,267.9636 382.6638,438.5624 -97.8635,-33.548 -203.3451,-81.684 -281.3625,-133.982 4.4929,17.9514 3.1255,30.5211 10.978,48.3883 -30.4725,-23.5003 -84.9323,-42.7967 -123.0619,-61.0842 5.5475,39.5596 -20.7837,73.6543 -20.5885,111.7004 -67.6255,-7.315 -114.5841,-62.976 -173.185,-95.4308 -4.3754,22.6174 -40.9817,66.297 -46.4119,86.4762 -43.8335,-41.6616 -86.1433,-97.1965 -143.3767,-127.8437 -31.3322,42.04 -52.4675,98.3316 -74.7358,138.3539 -43.9896,-67.5585 -110.4431,-119.7303 -152.0497,-189.601 -27.2301,34.8515 -43.2474,95.6834 -57.9759,135.2432 -23.8702,-25.5185 -73.5637,-32.6651 -93.7614,-45.4455 -10.392,25.7285 -37.0747,34.0105 -46.8025,48.2621 -13.947,-30.5631 -55.7101,-56.4177 -71.0243,-83.6178 -26.9174,42.839 -66.727,81.726 -119.585,104.974 -32.6601,-35.2714 -60.7106,-80.6747 -95.3241,-108.5053 -11.0169,36.1965 -48.0137,74.2429 -66.2579,102.7038 -64.1094,-29.4699 -108.7243,-79.0774 -128.336,-138.0594 -8.3995,43.9737 -18.3617,91.6894 -31.8009,131.7957 -11.3293,-20.3477 -16.1346,-20.0954 -31.7617,-35.6082 -10.3527,18.1194 -49.8497,39.4337 -63.4841,60.7061 -14.1425,-24.5096 -44.2243,-29.8905 -63.4454,-53.6853 -18.3614,27.8306 -61.0229,39.5598 -75.8685,56.5438 -6.6416,-22.9958 -42.1537,-45.8655 -50.0452,-63.3124 -66.18,24.1732 -127.3594,62.766 -188.5387,89.4616 7.3058,-17.9514 3.8287,-53.307 11.3686,-71.258 -53.0924,31.9504 -112.0839,63.5646 -169.8254,83.9961 6.8759,-29.9328 -7.11,-59.781 6.7977,-88.7048 -37.2702,13.8732 -95.285,23.3745 -131.0706,37.4577 9.4152,-15.5547 15.6661,-32.3706 24.5342,-46.7484 -70.36,-5.9699 -140.0951,23.7107 -202.4854,46.7484 -45.5525,-47.5473 -124.3121,9.249 -178.6155,48.136 -2.5395,-9.0806 4.8052,-20.3895 2.2658,-29.386 -33.3636,24.8038 -78.2518,43.1331 -110.4041,66.8437 5.8991,-17.6149 6.6023,-38.7189 11.603,-57.2166 -94.2692,38.7189 -133.61,54.2317 -235.8882,87.8219 -74.3839,24.3832 -233.97368,31.6982 -301.79458,76.4289"
       style="fill:#000000;fill-opacity:1;fill-rule:nonzero;stroke:none;stroke-width:0.405263" />
    <path
       id="path80"
       d="m 1837.1004,1587.6134 c -32.7773,92.9506 -92.3158,202.8852 -177.287,272.9662 85.1664,-11.6873 140.9155,-59.2346 186.6631,-115.7784 -2.3048,17.5726 3.9849,38.8869 1.4457,57.595 17.2676,-24.1732 47.4275,-49.0189 66.219,-68.7356 -0.6253,13.7471 5.0397,30.2689 4.5709,44.016 26.7609,-18.4135 53.9128,-43.6376 74.8137,-69.4923 -3.3599,29.8483 10.6653,51.9193 16.7209,78.573 20.1587,-30.9417 46.2947,-78.6991 73.8761,-107.7909 -2.8129,30.6053 8.7511,57.9734 21.8385,80.5066 22.3076,-37.0793 29.066,-75.9663 69.4227,-88.9148 -2.7349,24.8038 8.7119,55.5352 3.9456,79.8342 26.6048,-20.9779 52.7408,-57.5109 74.7747,-80.2964 -0.4688,16.5637 5.3133,36.1123 4.2193,52.5922 65.3596,-29.1761 75.3607,-122.6731 120.1318,-170.9353 4.6101,52.2138 -2.2658,102.9984 -6.5241,153.2362 45.2007,-45.025 74.3839,-112.1209 100.2465,-169.3373 -3.7504,66.7596 -0.3126,138.3539 44.8101,194.7297 12.15,-22.7858 35.942,-51.7516 45.9431,-76.4289 -0.5078,44.9408 13.361,93.4129 41.8803,130.5345 24.2997,-33.8844 33.2853,-74.2848 39.0282,-112.7938 9.1807,32.2449 22.7761,66.8438 51.6467,88.032 17.3069,-37.8361 26.8392,-77.4798 59.1479,-107.7906 45.2789,25.9808 52.7408,83.7858 102.5516,107.7067 18.3224,-30.353 29.3786,-65.9609 47.8965,-96.6081 20.3539,31.9923 47.2323,64.2371 86.1823,78.0262 4.1021,-29.3019 11.8764,-60.9161 21.4869,-87.8217 5.5867,27.7884 24.1436,49.7756 34.5356,70.1229 3.3206,-41.4094 0.7421,-84.5425 4.5319,-125.9522 6.8756,13.1165 34.3008,36.3226 43.3253,53.0966 4.8053,-3.9936 14.0643,-12.4859 19.5727,-16.8159 28.4021,60.2013 81.6117,168.0341 159.7071,189.6007 -2.2268,-28.6712 6.2117,-61.0422 3.9849,-89.5873 19.8853,23.1219 44.7321,55.4087 75.1263,71.216 3.6722,-12.9904 11.2124,-22.87 16.1738,-34.8934 31.6835,31.1937 136.9699,122.3367 158.3007,36.3226 19.7288,25.266 47.9745,51.9616 86.1433,61.967 4.9224,-10.4679 6.1724,-15.975 13.0094,-25.6443 47.2713,33.4219 88.6435,76.5131 157.7143,89.6715 -23.0887,-100.5598 -160.0194,-169.7998 -192.0544,-273.5549 0.6249,7.1469 -5.665,58.0573 -12.6578,82.5246 -25.55,-19.128 -55.9053,-51.667 -86.7294,-61.6728 2.0314,18.3297 -11.4468,38.1725 -12.5016,52.5922 -12.0328,-9.7532 -43.3646,-18.4555 -58.2882,-32.413 1.1327,10.8045 -2.2661,22.4495 -1.4847,32.4552 -28.5582,-7.1469 -39.7704,-4.5403 -65.6719,-7.273 -65.5158,-39.7279 -116.5379,-91.0169 -167.7158,-143.5249 -1.2113,10.3838 -3.1644,22.113 -4.5319,32.8755 -21.6433,-30.0167 -45.0837,-73.0659 -68.8364,-107.8329 -13.4782,0.041 -3.7505,10.3838 -10.4702,16.6479 -9.845,-9.7535 -39.575,-26.7375 -52.4282,-34.8092 14.7674,60.4116 -55.9052,68.0627 -66.6096,123.5979 5.9381,-1.1774 -27.5034,-15.3448 -26.0188,-14.6722 -3.6725,3.2372 -21.9949,24.8879 -25.4327,25.9388 -7.6574,-6.6002 -20.9012,-16.1015 -30.9023,-25.8966 -6.3679,5.9277 -33.2853,18.3713 -42.8569,25.2241 -21.7213,-41.5359 -72.0399,-60.8742 -116.0688,-72.3931 -7.3447,13.9571 -38.286,40.4424 -42.5442,54.8624 -5.7819,-14.2516 -20.0805,-27.1582 -25.1201,-36.8694 -8.4778,11.5192 -38.0127,29.8066 -46.2558,43.9321 -29.8475,-85.846 -118.0222,-192.5857 -114.9749,-285.6205 -23.9482,48.346 -46.0993,101.6529 -63.2107,149.8309 -0.5471,-13.3688 -3.907,-28.7135 -4.493,-42.1661 -15.4314,13.3687 -49.3809,31.6562 -62.8591,59.2343 -54.4599,-1.4293 -139.0013,90.5124 -176.2325,129.4835 -17.2676,4.2039 -58.4837,11.0567 -85.0103,18.2033 -2.6174,-1.0509 -7.7353,-15.1344 -13.5954,-18.4974 -44.8882,28.6293 -70.6726,23.29 -122.3976,45.9497 -38.5594,-9.8793 -23.4796,-23.9629 -68.563,7.0627 -19.3776,-7.1046 3.6722,-13.1165 -25.1594,-9.7954 -3.5551,-17.8669 -19.9243,-48.346 -22.1122,-59.991"
       style="fill:#ffffff;fill-opacity:1;fill-rule:nonzero;stroke:none;stroke-width:0.405263" />
    <path
       id="path81"
       d="m 1451.8192,2332.5636 c 43.3257,-68.1888 203.9311,-158.6593 281.2842,-205.7861 -8.0479,20.0109 -8.3995,55.5349 -18.9477,75.3777 17.6585,-18.1613 49.1858,-35.4817 66.5706,-57.2163 3.8287,16.9001 12.0328,32.4129 12.6971,49.9855 8.7119,5.8016 22.6199,-3.6155 30.6676,2.6905 -2.0314,20.8098 9.1417,32.9174 15.0018,51.5832 29.7303,-3.9936 68.2507,6.9366 98.2544,2.9849 -1.6409,12.7801 5.5864,30.0167 3.4378,42.6706 151.0731,69.7026 479.4335,-145.5847 596.5181,-215.7495 -6.0556,17.1943 -12.8922,49.3549 -18.6351,56.7119 35.6683,-26.8637 58.4837,-64.8678 78.1736,-99.8451 0.3123,29.7644 9.5323,56.5019 12.4623,86.3082 5.3913,4.9607 22.8154,0.5887 30.6286,2.6905 3.0473,27.5784 8.2434,26.1492 24.339,44.9411 9.5324,-5.9699 22.581,-12.7804 31.4491,-18.1194 12.0718,50.4062 81.1036,68.4414 124.3511,97.6171 7.2665,-3.4894 19.3383,-13.4107 25.511,-17.6988 34.4183,2.6905 51.9204,9.1226 88.3701,1.8076 11.3686,67.6424 152.5967,-5.4651 197.1724,-35.8601 63.0545,34.0103 125.914,-2.1863 147.5963,-54.7784 11.9935,-1.8496 41.2158,-6.0538 54.03,-7.7353 24.4169,38.5928 52.7408,102.7039 77.6266,127.844 -12.228,-20.1373 -44.1851,-41.4097 -63.2108,-56.5018 -45.8651,30.9414 -60.7498,-4.8768 -105.052,7.8194 -43.052,12.3598 -86.3385,38.3825 -124.5855,52.8444 -57.1552,21.6504 -156.1128,19.6748 -212.4868,64.4894 -31.3319,-104.2595 -76.9234,-7.1888 -127.75,-16.3956 -68.4848,-12.3598 -49.4591,-93.7493 -155.8001,-56.5019 -48.1699,-108.4215 -120.5224,-95.3469 -181.6238,-1.5976 4.6101,-23.3742 -6.1724,-53.7692 -3.9456,-77.8163 -55.5147,11.5192 -85.8309,54.0218 -143.6114,70.3752 -1.5626,-5.381 -3.008,-10.8041 -4.4927,-16.2273 -30.0036,26.4011 -69.3834,59.4446 -108.2554,79.7919 -24.8468,-25.7286 -60.8278,-11.645 -93.1754,15.4708 -58.0149,-11.9814 -171.7006,26.275 -224.6366,48.0519 -3.6725,-27.4101 -19.6899,-53.475 -26.9564,-79.4139 -18.4789,9.291 -68.6413,15.3028 -86.6514,24.9299 4.5319,-17.951 -7.4616,-42.9651 -3.4378,-61.0003 -51.6077,-1.9337 -93.8786,24.9299 -122.8664,58.5198 -5.5478,-7.1046 -8.1262,-15.1763 -13.361,-22.0288 -56.1397,0.5884 -110.209,-1.3454 -145.2913,34.767"
       style="fill:#ffffff;fill-opacity:1;fill-rule:nonzero;stroke:none;stroke-width:0.405263" />
    <path
       id="path82"
       d="m 3593.4083,2259.8764 c 44.849,2.7746 86.2994,-17.783 110.482,-44.6885 8.0479,16.0172 30.7461,27.0316 37.075,36.701 44.0286,-30.4792 123.9992,-106.4456 143.6501,-143.1046 0.9766,-0.5887 38.2078,-16.2276 49.303,-22.3233 -0.3126,-6.9366 -0.7425,-7.1047 -1.2113,-0.5045 17.0335,104.6379 111.3417,132.2582 166.583,211.5456 -42.3881,-30.4369 -88.214,-58.3936 -130.2112,-89.4192 4.5316,11.9814 4.0239,26.2752 10.6654,39.7701 -15.2755,-24.5096 -44.9665,-35.8182 -66.7661,-50.8265 -1.5625,16.7318 -15.9004,33.59 -15.5878,52.5922 -41.1768,-27.2842 -87.7841,-10.5102 -102.2389,36.1543 -57.5851,-6.9786 -140.7204,-29.428 -201.7432,-7.7353"
       style="fill:#ffffff;fill-opacity:1;fill-rule:nonzero;stroke:none;stroke-width:0.405263" />
  </g>
</svg>
